<svg width="20" height="20" viewBox="0 0 20 20" fill="none" xmlns="http://www.w3.org/2000/svg">
<path d="M11.7698 10.0003L19.6284 2.13948C20.1172 1.65052 20.1172 0.855665 19.6284 0.366714C19.1396 -0.122238 18.3449 -0.122238 17.8561 0.366714L9.99749 8.22755L2.14138 0.366714C1.65006 -0.122238 0.857931 -0.122238 0.36661 0.366714C-0.122203 0.858173 -0.122203 1.65052 0.36661 2.14198L8.22523 10.0028L0.36661 17.8612C-0.122203 18.3501 -0.122203 19.145 0.36661 19.6339C0.612271 19.8796 0.933133 20 1.254 20C1.57486 20 1.89572 19.8771 2.14138 19.6339L10 11.7731L17.8586 19.6339C18.1043 19.8796 18.4251 20 18.746 20C19.0669 20 19.3877 19.8771 19.6334 19.6339C20.1222 19.145 20.1222 18.3501 19.6334 17.8612L11.7748 10.0003H11.7698Z" fill="#FF99A7"/>
</svg>
