<?xml version="1.0" encoding="UTF-8"?><svg id="Layer_2" xmlns="http://www.w3.org/2000/svg" viewBox="0 0 101.4 225.16"><defs><style>.cls-1{fill:#ff99a7;}</style></defs><g id="Artwork"><path class="cls-1" d="M56.86,64.52c.36-1.24,1.65-1.96,2.9-1.61,10.61,3.04,19.4,10.99,23.5,21.26,.48,1.2-.11,2.56-1.31,3.04-.29,.11-.58,.17-.87,.17-.93,0-1.81-.56-2.18-1.47-3.57-8.93-11.21-15.85-20.44-18.49-1.24-.36-1.96-1.65-1.61-2.9Zm38.54,55.45c0-3.02-1.62-5.73-4.21-7.16l-.06-.04c-.99-.41-2.02-.61-3.1-.61h-3.74c-1.55,0-2.81-1.26-2.81-2.81s1.26-2.81,2.81-2.81h4.67c.57-2.68,.83-5.3,.83-8.09,0-21.55-17.54-39.09-39.09-39.09S11.61,76.91,11.61,98.46c0,2.64,.24,5.14,.75,7.68h6.24c1.55,0,2.81,1.25,2.81,2.8s-1.26,2.81-2.81,2.81h-3.74c-1.08,0-2.26,.02-3.21,.42l-.46,.18c-3.16,1.25-5.2,4.25-5.2,7.63,0,4.53,3.69,8.22,8.22,8.22h25.25c3.31,0,6.42,1.29,8.74,3.64,2.32,2.3,3.62,5.4,3.62,8.71v19.37c0,1.25,.42,2.45,1.19,3.4,1.05,1.29,2.59,2.02,4.22,2.02,1.46,0,2.81-.56,3.82-1.58,1.04-1.04,1.6-2.4,1.6-3.84v-18.44c0-.62,.08-1.21,.24-1.75,.79-2.94,3.45-4.99,6.5-4.99,1.79,0,3.48,.7,4.76,1.98,.83,.83,1.43,1.87,1.74,3.01,.16,.55,.24,1.14,.24,1.75,0,2.47,2.01,4.48,4.48,4.48,1.2,0,2.33-.47,3.17-1.31,.84-.84,1.31-1.97,1.31-3.17v-.04l.16-10.44c0-1.46,1.12-2.71,2.58-2.83h.02c4.22-.34,7.53-3.94,7.53-8.2ZM55.15,23.32l1.48-.03c5.79,0,8.98,1.83,11.45,1.83,2.08,0,2.29-1.14,4.59-1.14,2.06,0,3.44,2.41,3.63,4.05,.44,3.87,.37,7.47-3.31,7.78-2.45,.2-3.42-1.35-4.8-3.47-1.54-2.38-5.22-3.94-9.81-3.94-7.66,0-11.98,4.45-11.98,10.46,0,7.68,5.73,10.71,11.63,10.71,6.95,0,9.88-2.88,10.68-4.59,.77-1.67,1.72-3.44,4.07-3.44,3.29,0,4.07,3.25,4.07,6.38,0,2.64-.84,5.79-3.72,5.79-2.56,0-2.4-1.5-4.89-1.13-1.47,.22-4.08,1.22-7.39,1.83l-.16,.04c20.04,4.58,35.1,22.62,35.1,44.02,0,3.23-.34,6.41-1,9.5,4.09,2.57,6.61,7.05,6.61,12.01,0,6.4-4.34,11.95-10.29,13.67v7.84c0,2.8-1.09,5.44-3.07,7.41-1.65,1.65-3.71,2.68-5.99,2.97l-.16,.41-27.06,70.86c-.46,1.22-1.63,2.02-2.93,2.02s-2.47-.8-2.93-2.02L15.11,134.2h-.88c-7.84,0-14.22-6.39-14.22-14.23,0-4.96,2.53-9.44,6.61-12.01-.67-3.09-1-6.28-1-9.5,0-23.23,17.67-42.43,40.26-44.85l-.1-.04c-6.95-1.81-14.2-5.91-14.2-14.72,0-10.22,11.75-14.03,19.83-15.16v-.07c-.26-8.87,3.68-17.54,10.55-23.19,.8-.66,1.99-.55,2.65,.26,.16,.19,.27,.4,.34,.62,.23,.71,.01,1.52-.6,2.03-5.92,4.87-9.35,12.33-9.18,19.98m-9.27,175.26l6.06,15.96,23.95-63.43,.08-.23c-3.45-1.72-5.83-5.28-5.83-9.39l-.04-.19c-.03-.13-.09-.24-.19-.33-.08-.08-.26-.22-.52-.22-.37,0-.63,.28-.7,.55l-.03,.12v18.51c0,3.04-1.19,5.91-3.35,8.07-1.72,1.74-3.93,2.86-6.34,3.22l.23,.29,2.07,2.7c.56,.72,.42,1.76-.3,2.31-.72,.56-1.76,.42-2.31-.3l-2.07-2.7-1.47-1.9-9.18,7.09,7.56,9.78,1.17-.9c.72-.56,1.76-.42,2.31,.3,.56,.72,.42,1.76-.3,2.31l-1.16,.88v.02l1.69,2.19c.56,.72,.42,1.76-.3,2.31-.72,.56-1.76,.42-2.31-.3l-1.7-2.19-7.02,5.45Zm4.95-8.14l-7.53-9.68-3.24,2.49,.05,.12,4.52,11.89,6.2-4.84Zm.92-20.51c-1.28-.7-2.43-1.66-3.38-2.83-1.64-2-2.54-4.56-2.54-7.19v-.94l-.11,.09-11.47,8.86,.02,.04,4.5,11.86,2.52-1.76-1.12-1.43-2.07-2.7c-.56-.72-.42-1.76,.3-2.31,.72-.56,1.76-.42,2.31,.3l2.07,2.7,1.13,1.48,7.87-6.15-.03-.02Zm-5.93-15.73v-13.65c0-1.7-.66-3.28-1.86-4.47-1.21-1.22-2.8-1.88-4.49-1.88h-9.17l.09,.11,6.14,7.88,2.7-2.07c.72-.56,1.76-.42,2.31,.3,.56,.72,.42,1.76-.3,2.31l-2.7,2.07,7.19,9.3,.07,.09Zm-2.31,2.4l-7.59-9.77-7.52,5.7,4.62,12.16,10.49-8.1Zm-16.35-7.33l6.69-5.1-7.8-9.98h-4.61l5.72,15.07h0Zm56.78-59.57c-1.53,0-2.78,1.24-2.78,2.78s1.24,2.78,2.78,2.78,2.78-1.24,2.78-2.78-1.24-2.78-2.78-2.78Z"/></g></svg>