<?xml version="1.0" encoding="UTF-8"?><svg id="Layer_2" xmlns="http://www.w3.org/2000/svg" viewBox="0 0 327.03 721.29"><defs><style>.cls-1{fill:none;stroke:#fedde0;stroke-linecap:round;stroke-linejoin:round;stroke-width:4px;}</style></defs><g id="Layer_1-2"><path class="cls-1" d="M177.7,76.29l4.72-.11c18.44,0,28.59,5.83,36.47,5.83,6.62,0,7.3-3.63,14.62-3.63,6.56,0,10.97,7.68,11.56,12.9,1.39,12.33,1.16,23.8-10.54,24.77-7.81,.65-10.9-4.29-15.3-11.06-4.92-7.57-16.62-12.55-31.26-12.55-24.41,0-38.18,14.19-38.18,33.32,0,24.48,18.26,34.1,37.05,34.1,22.14,0,31.49-9.16,34.03-14.63,2.47-5.31,5.49-10.94,12.95-10.94,10.49,0,12.98,10.34,12.98,20.33,0,8.4-2.67,18.43-11.85,18.43-8.17,0-7.63-4.78-15.57-3.6-4.69,.7-13,3.89-23.54,5.84l-.51,.12c63.84,14.59,111.81,72.05,111.81,140.25,0,10.28-1.07,20.43-3.19,30.28,13.02,8.19,21.07,22.45,21.07,38.25,0,20.39-13.83,38.06-32.78,43.55v24.98c0,8.93-3.47,17.32-9.77,23.62-5.26,5.26-11.81,8.53-19.08,9.48l-.5,1.32-86.22,225.73c-1.48,3.87-5.19,6.43-9.33,6.43s-7.85-2.56-9.33-6.43L50.13,429.53h0l-2.82-.03c-24.98,0-45.31-20.33-45.31-45.31,0-15.8,8.05-30.07,21.07-38.25-2.12-9.85-3.19-20-3.19-30.28,0-74,56.28-135.17,128.27-142.88l-.33-.14c-22.13-5.77-45.25-18.83-45.25-46.89,0-32.56,37.42-44.7,63.16-48.3v-.22c-.83-28.27,11.74-55.88,33.6-73.88,2.56-2.11,6.34-1.74,8.45,.82,.5,.61,.86,1.28,1.08,1.99,.72,2.27,.05,4.85-1.9,6.46-18.87,15.52-29.77,39.28-29.25,63.66"/></g></svg>